<mxfile host="app.diagrams.net" modified="2023-07-20T10:41:40.891Z" agent="Mozilla/5.0 (Windows NT 10.0; Win64; x64) AppleWebKit/537.36 (KHTML, like Gecko) Chrome/114.0.0.0 Safari/537.36" version="21.6.2" etag="j3O2EtMXZ7HWgX1KSGWZ" type="github">
  <diagram name="第 1 页" id="g2OTdbqkCXS_63A4ccjP">
    <mxGraphModel>
      <root>
        <mxCell id="0" />
        <mxCell id="1" parent="0" />
      </root>
    </mxGraphModel>
  </diagram>
</mxfile>
